<?xml version="1.0" encoding="UTF-8" standalone="no"?>
<!DOCTYPE svg PUBLIC "-//W3C//DTD SVG 1.1//EN"
 "http://www.w3.org/Graphics/SVG/1.1/DTD/svg11.dtd">
<!-- Generated by graphviz version 2.43.0 (0)
 -->
<!-- Title: classes Pages: 1 -->
<svg width="2552pt" height="336pt"
 viewBox="0.00 0.00 2552.00 335.80" xmlns="http://www.w3.org/2000/svg" xmlns:xlink="http://www.w3.org/1999/xlink">
<g id="graph0" class="graph" transform="scale(1 1) rotate(0) translate(4 331.8)">
<title>classes</title>
<polygon fill="white" stroke="transparent" points="-4,4 -4,-331.8 2548,-331.8 2548,4 -4,4"/>
<!-- netbom.bom_readers.altium_bom_reader.AltiumBomReader -->
<g id="node1" class="node">
<title>netbom.bom_readers.altium_bom_reader.AltiumBomReader</title>
<polygon fill="none" stroke="black" points="0,-38 0,-137 223,-137 223,-38 0,-38"/>
<text text-anchor="start" x="46" y="-121.8" font-family="Times,serif" font-size="14.00">AltiumBomReader</text>
<polyline fill="none" stroke="black" points="0,-114 223,-114 "/>
<text text-anchor="start" x="8" y="-98.8" font-family="Times,serif" font-size="14.00">DATA_HEADERS_SUFIX : str</text>
<text text-anchor="start" x="8" y="-83.8" font-family="Times,serif" font-size="14.00">ROW_DATA : int</text>
<text text-anchor="start" x="8" y="-68.8" font-family="Times,serif" font-size="14.00">ROW_HEADERS : int</text>
<polyline fill="none" stroke="black" points="0,-61 223,-61 "/>
<text text-anchor="start" x="30.5" y="-45.8" font-family="Times,serif" font-size="14.00">from_excel(path): Bom</text>
</g>
<!-- netbom.bom.Bom -->
<g id="node2" class="node">
<title>netbom.bom.Bom</title>
<polygon fill="none" stroke="black" points="621.5,-234.9 621.5,-318.9 675.5,-318.9 675.5,-234.9 621.5,-234.9"/>
<text text-anchor="start" x="632" y="-303.7" font-family="Times,serif" font-size="14.00">Bom</text>
<polyline fill="none" stroke="black" points="621.5,-295.9 675.5,-295.9 "/>
<text text-anchor="start" x="631" y="-280.7" font-family="Times,serif" font-size="14.00">data</text>
<text text-anchor="start" x="631" y="-265.7" font-family="Times,serif" font-size="14.00">rows</text>
<polyline fill="none" stroke="black" points="621.5,-257.9 675.5,-257.9 "/>
<text text-anchor="start" x="646" y="-242.7" font-family="Times,serif" font-size="14.00"> </text>
</g>
<!-- netbom.bom.BomData -->
<g id="node3" class="node">
<title>netbom.bom.BomData</title>
<polygon fill="none" stroke="black" points="708,-52.1 708,-122.9 791,-122.9 791,-52.1 708,-52.1"/>
<text text-anchor="start" x="716" y="-107.7" font-family="Times,serif" font-size="14.00">BomData</text>
<polyline fill="none" stroke="black" points="708,-99.9 791,-99.9 "/>
<polyline fill="none" stroke="black" points="708,-75.1 791,-75.1 "/>
<text text-anchor="start" x="747" y="-59.9" font-family="Times,serif" font-size="14.00"> </text>
</g>
<!-- netbom.bom.BomData&#45;&gt;netbom.bom.Bom -->
<g id="edge3" class="edge">
<title>netbom.bom.BomData&#45;&gt;netbom.bom.Bom</title>
<path fill="none" stroke="black" d="M730.74,-123.31C715.53,-151.53 693.87,-191.72 676.59,-223.78"/>
<polygon fill="black" stroke="black" points="676.37,-224.18 677.05,-231.36 670.68,-234.74 670.01,-227.56 676.37,-224.18"/>
<text text-anchor="middle" x="713" y="-196.8" font-family="Times,serif" font-size="14.00" fill="green">_data</text>
</g>
<!-- netbom.bom.BomUtils -->
<g id="node6" class="node">
<title>netbom.bom.BomUtils</title>
<polygon fill="none" stroke="black" points="792,-226.5 792,-327.3 875,-327.3 875,-226.5 792,-226.5"/>
<text text-anchor="start" x="800" y="-312.1" font-family="Times,serif" font-size="14.00">BomUtils</text>
<polyline fill="none" stroke="black" points="792,-304.3 875,-304.3 "/>
<polyline fill="none" stroke="black" points="792,-279.5 875,-279.5 "/>
<text text-anchor="start" x="805" y="-264.3" font-family="Times,serif" font-size="14.00">items()</text>
<text text-anchor="start" x="805" y="-249.3" font-family="Times,serif" font-size="14.00">keys()</text>
<text text-anchor="start" x="805" y="-234.3" font-family="Times,serif" font-size="14.00">values()</text>
</g>
<!-- netbom.bom.BomData&#45;&gt;netbom.bom.BomUtils -->
<g id="edge1" class="edge">
<title>netbom.bom.BomData&#45;&gt;netbom.bom.BomUtils</title>
<path fill="none" stroke="black" d="M765.1,-123.31C776.88,-149.59 793.33,-186.27 807.14,-217.08"/>
<polygon fill="none" stroke="black" points="804.05,-218.75 811.33,-226.44 810.43,-215.88 804.05,-218.75"/>
</g>
<!-- netbom.bom.BomRow -->
<g id="node4" class="node">
<title>netbom.bom.BomRow</title>
<polygon fill="none" stroke="black" points="809.5,-52.1 809.5,-122.9 943.5,-122.9 943.5,-52.1 809.5,-52.1"/>
<text text-anchor="start" x="844.5" y="-107.7" font-family="Times,serif" font-size="14.00">BomRow</text>
<polyline fill="none" stroke="black" points="809.5,-99.9 943.5,-99.9 "/>
<polyline fill="none" stroke="black" points="809.5,-75.1 943.5,-75.1 "/>
<text text-anchor="start" x="817.5" y="-59.9" font-family="Times,serif" font-size="14.00">set_index(index)</text>
</g>
<!-- netbom.bom.BomRow&#45;&gt;netbom.bom.BomUtils -->
<g id="edge2" class="edge">
<title>netbom.bom.BomRow&#45;&gt;netbom.bom.BomUtils</title>
<path fill="none" stroke="black" d="M868.51,-123.31C862.51,-149.48 854.14,-185.96 847.09,-216.68"/>
<polygon fill="none" stroke="black" points="843.67,-215.91 844.85,-226.44 850.5,-217.47 843.67,-215.91"/>
</g>
<!-- netbom.bom.BomRows -->
<g id="node5" class="node">
<title>netbom.bom.BomRows</title>
<polygon fill="none" stroke="black" points="241.5,-22.1 241.5,-152.9 689.5,-152.9 689.5,-22.1 241.5,-22.1"/>
<text text-anchor="start" x="430" y="-137.7" font-family="Times,serif" font-size="14.00">BomRows</text>
<polyline fill="none" stroke="black" points="241.5,-129.9 689.5,-129.9 "/>
<polyline fill="none" stroke="black" points="241.5,-105.1 689.5,-105.1 "/>
<text text-anchor="start" x="249.5" y="-89.9" font-family="Times,serif" font-size="14.00">append(row)</text>
<text text-anchor="start" x="249.5" y="-74.9" font-family="Times,serif" font-size="14.00">append_by_designator(designator: str, data_dict: dict): None</text>
<text text-anchor="start" x="249.5" y="-59.9" font-family="Times,serif" font-size="14.00">delete(index)</text>
<text text-anchor="start" x="249.5" y="-44.9" font-family="Times,serif" font-size="14.00">fetch_row_by_designator(designator: str): BomRow</text>
<text text-anchor="start" x="249.5" y="-29.9" font-family="Times,serif" font-size="14.00">items()</text>
</g>
<!-- netbom.bom.BomRows&#45;&gt;netbom.bom.Bom -->
<g id="edge4" class="edge">
<title>netbom.bom.BomRows&#45;&gt;netbom.bom.Bom</title>
<path fill="none" stroke="black" d="M528.48,-152.99C556.66,-181.85 588.84,-214.81 612.79,-239.33"/>
<polygon fill="black" stroke="black" points="612.83,-239.37 619.88,-240.87 621.21,-247.96 614.16,-246.46 612.83,-239.37"/>
<text text-anchor="middle" x="600.5" y="-196.8" font-family="Times,serif" font-size="14.00" fill="green">_rows</text>
</g>
<!-- netbom.netlist.Netlist -->
<g id="node7" class="node">
<title>netbom.netlist.Netlist</title>
<polygon fill="none" stroke="black" points="961.5,-7.1 961.5,-167.9 1353.5,-167.9 1353.5,-7.1 961.5,-7.1"/>
<text text-anchor="start" x="1133" y="-152.7" font-family="Times,serif" font-size="14.00">Netlist</text>
<polyline fill="none" stroke="black" points="961.5,-144.9 1353.5,-144.9 "/>
<polyline fill="none" stroke="black" points="961.5,-120.1 1353.5,-120.1 "/>
<text text-anchor="start" x="969.5" y="-104.9" font-family="Times,serif" font-size="14.00">append(netline)</text>
<text text-anchor="start" x="969.5" y="-89.9" font-family="Times,serif" font-size="14.00">append_pin(net: str, designator: str, pin: str)</text>
<text text-anchor="start" x="969.5" y="-74.9" font-family="Times,serif" font-size="14.00">append_pins(net: str, designator: str, pins: list)</text>
<text text-anchor="start" x="969.5" y="-59.9" font-family="Times,serif" font-size="14.00">filter_designator(startswith: str): NetlistDesignators</text>
<text text-anchor="start" x="969.5" y="-44.9" font-family="Times,serif" font-size="14.00">nets(): list</text>
<text text-anchor="start" x="969.5" y="-29.9" font-family="Times,serif" font-size="14.00">to_dict(): dict</text>
<text text-anchor="start" x="969.5" y="-14.9" font-family="Times,serif" font-size="14.00">to_json(): str</text>
</g>
<!-- netbom.netlist.NetlistConnection -->
<g id="node8" class="node">
<title>netbom.netlist.NetlistConnection</title>
<polygon fill="none" stroke="black" points="1349.5,-234.9 1349.5,-318.9 1495.5,-318.9 1495.5,-234.9 1349.5,-234.9"/>
<text text-anchor="start" x="1357.5" y="-303.7" font-family="Times,serif" font-size="14.00">NetlistConnection</text>
<polyline fill="none" stroke="black" points="1349.5,-295.9 1495.5,-295.9 "/>
<text text-anchor="start" x="1384" y="-280.7" font-family="Times,serif" font-size="14.00">designator</text>
<text text-anchor="start" x="1384" y="-265.7" font-family="Times,serif" font-size="14.00">pins</text>
<polyline fill="none" stroke="black" points="1349.5,-257.9 1495.5,-257.9 "/>
<text text-anchor="start" x="1420" y="-242.7" font-family="Times,serif" font-size="14.00"> </text>
</g>
<!-- netbom.netlist.NetlistConnections -->
<g id="node9" class="node">
<title>netbom.netlist.NetlistConnections</title>
<polygon fill="none" stroke="black" points="1492,-37.1 1492,-137.9 1695,-137.9 1695,-37.1 1492,-37.1"/>
<text text-anchor="start" x="1525" y="-122.7" font-family="Times,serif" font-size="14.00">NetlistConnections</text>
<polyline fill="none" stroke="black" points="1492,-114.9 1695,-114.9 "/>
<polyline fill="none" stroke="black" points="1492,-90.1 1695,-90.1 "/>
<text text-anchor="start" x="1500" y="-74.9" font-family="Times,serif" font-size="14.00">append(connection): None</text>
<text text-anchor="start" x="1500" y="-59.9" font-family="Times,serif" font-size="14.00">designators()</text>
<text text-anchor="start" x="1500" y="-44.9" font-family="Times,serif" font-size="14.00">to_dict(): dict</text>
</g>
<!-- netbom.netlist.NetlistNetline -->
<g id="node12" class="node">
<title>netbom.netlist.NetlistNetline</title>
<polygon fill="none" stroke="black" points="1534.5,-234.9 1534.5,-318.9 1652.5,-318.9 1652.5,-234.9 1534.5,-234.9"/>
<text text-anchor="start" x="1542.5" y="-303.7" font-family="Times,serif" font-size="14.00">NetlistNetline</text>
<polyline fill="none" stroke="black" points="1534.5,-295.9 1652.5,-295.9 "/>
<text text-anchor="start" x="1551" y="-280.7" font-family="Times,serif" font-size="14.00">connections</text>
<text text-anchor="start" x="1551" y="-265.7" font-family="Times,serif" font-size="14.00">net</text>
<polyline fill="none" stroke="black" points="1534.5,-257.9 1652.5,-257.9 "/>
<text text-anchor="start" x="1591" y="-242.7" font-family="Times,serif" font-size="14.00"> </text>
</g>
<!-- netbom.netlist.NetlistConnections&#45;&gt;netbom.netlist.NetlistNetline -->
<g id="edge5" class="edge">
<title>netbom.netlist.NetlistConnections&#45;&gt;netbom.netlist.NetlistNetline</title>
<path fill="none" stroke="black" d="M1593.5,-138.23C1593.5,-164.25 1593.5,-196.13 1593.5,-222.65"/>
<polygon fill="none" stroke="black" points="1593.5,-222.81 1597.5,-228.81 1593.5,-234.81 1589.5,-228.81 1593.5,-222.81"/>
<text text-anchor="middle" x="1639.5" y="-196.8" font-family="Times,serif" font-size="14.00" fill="green">_connections</text>
</g>
<!-- netbom.netlist.NetlistDesignator -->
<g id="node10" class="node">
<title>netbom.netlist.NetlistDesignator</title>
<polygon fill="none" stroke="black" points="1713,-38 1713,-137 1928,-137 1928,-38 1713,-38"/>
<text text-anchor="start" x="1756.5" y="-121.8" font-family="Times,serif" font-size="14.00">NetlistDesignator</text>
<polyline fill="none" stroke="black" points="1713,-114 1928,-114 "/>
<text text-anchor="start" x="1782" y="-98.8" font-family="Times,serif" font-size="14.00">designator</text>
<text text-anchor="start" x="1782" y="-83.8" font-family="Times,serif" font-size="14.00">items</text>
<polyline fill="none" stroke="black" points="1713,-76 1928,-76 "/>
<text text-anchor="start" x="1721" y="-60.8" font-family="Times,serif" font-size="14.00">append(pin_net: dict): None</text>
<text text-anchor="start" x="1721" y="-45.8" font-family="Times,serif" font-size="14.00">to_dict(): dict</text>
</g>
<!-- netbom.netlist.NetlistDesignators -->
<g id="node11" class="node">
<title>netbom.netlist.NetlistDesignators</title>
<polygon fill="none" stroke="black" points="1946,-37.1 1946,-137.9 2211,-137.9 2211,-37.1 1946,-37.1"/>
<text text-anchor="start" x="2010.5" y="-122.7" font-family="Times,serif" font-size="14.00">NetlistDesignators</text>
<polyline fill="none" stroke="black" points="1946,-114.9 2211,-114.9 "/>
<polyline fill="none" stroke="black" points="1946,-90.1 2211,-90.1 "/>
<text text-anchor="start" x="1954" y="-74.9" font-family="Times,serif" font-size="14.00">append(designator, pin, net): None</text>
<text text-anchor="start" x="1954" y="-59.9" font-family="Times,serif" font-size="14.00">to_dict(): dict</text>
<text text-anchor="start" x="1954" y="-44.9" font-family="Times,serif" font-size="14.00">to_json(): str</text>
</g>
<!-- netbom.netlist.NetlistPins -->
<g id="node13" class="node">
<title>netbom.netlist.NetlistPins</title>
<polygon fill="none" stroke="black" points="1371.5,-52.1 1371.5,-122.9 1473.5,-122.9 1473.5,-52.1 1371.5,-52.1"/>
<text text-anchor="start" x="1382.5" y="-107.7" font-family="Times,serif" font-size="14.00">NetlistPins</text>
<polyline fill="none" stroke="black" points="1371.5,-99.9 1473.5,-99.9 "/>
<polyline fill="none" stroke="black" points="1371.5,-75.1 1473.5,-75.1 "/>
<text text-anchor="start" x="1379.5" y="-59.9" font-family="Times,serif" font-size="14.00">to_list(): list</text>
</g>
<!-- netbom.netlist.NetlistPins&#45;&gt;netbom.netlist.NetlistConnection -->
<g id="edge6" class="edge">
<title>netbom.netlist.NetlistPins&#45;&gt;netbom.netlist.NetlistConnection</title>
<path fill="none" stroke="black" d="M1422.5,-123.31C1422.5,-151.16 1422.5,-190.67 1422.5,-222.51"/>
<polygon fill="none" stroke="black" points="1422.5,-222.74 1426.5,-228.74 1422.5,-234.74 1418.5,-228.74 1422.5,-222.74"/>
<text text-anchor="middle" x="1441" y="-196.8" font-family="Times,serif" font-size="14.00" fill="green">_pins</text>
</g>
<!-- netbom.netlist_readers.rinf_netlist_reader.RinfNetlistReader -->
<g id="node14" class="node">
<title>netbom.netlist_readers.rinf_netlist_reader.RinfNetlistReader</title>
<polygon fill="none" stroke="black" points="2229,-0.5 2229,-174.5 2544,-174.5 2544,-0.5 2229,-0.5"/>
<text text-anchor="start" x="2321.5" y="-159.3" font-family="Times,serif" font-size="14.00">RinfNetlistReader</text>
<polyline fill="none" stroke="black" points="2229,-151.5 2544,-151.5 "/>
<text text-anchor="start" x="2294.5" y="-136.3" font-family="Times,serif" font-size="14.00">FILE_END : str</text>
<text text-anchor="start" x="2294.5" y="-121.3" font-family="Times,serif" font-size="14.00">FILE_HEADER : str</text>
<text text-anchor="start" x="2294.5" y="-106.3" font-family="Times,serif" font-size="14.00">SEPARATOR : str</text>
<text text-anchor="start" x="2294.5" y="-91.3" font-family="Times,serif" font-size="14.00">STRING_DELIMITER : str</text>
<polyline fill="none" stroke="black" points="2229,-83.5 2544,-83.5 "/>
<text text-anchor="start" x="2237" y="-68.3" font-family="Times,serif" font-size="14.00">bom_and_netlist_from_file(path: str): Bom</text>
<text text-anchor="start" x="2237" y="-53.3" font-family="Times,serif" font-size="14.00">bom_from_file(path: str): Bom</text>
<text text-anchor="start" x="2237" y="-38.3" font-family="Times,serif" font-size="14.00">get_file_flavor(path): str</text>
<text text-anchor="start" x="2237" y="-23.3" font-family="Times,serif" font-size="14.00">is_file_valid(path: str): bool</text>
<text text-anchor="start" x="2237" y="-8.3" font-family="Times,serif" font-size="14.00">netlist_from_file(path: str)</text>
</g>
</g>
</svg>
