<?xml version="1.0" encoding="UTF-8" standalone="no"?>
<!DOCTYPE svg PUBLIC "-//W3C//DTD SVG 1.1//EN"
 "http://www.w3.org/Graphics/SVG/1.1/DTD/svg11.dtd">
<!-- Generated by graphviz version 2.43.0 (0)
 -->
<!-- Title: classes Pages: 1 -->
<svg width="2552pt" height="338pt"
 viewBox="0.00 0.00 2552.00 337.60" xmlns="http://www.w3.org/2000/svg" xmlns:xlink="http://www.w3.org/1999/xlink">
<g id="graph0" class="graph" transform="scale(1 1) rotate(0) translate(4 333.6)">
<title>classes</title>
<polygon fill="white" stroke="transparent" points="-4,4 -4,-333.6 2548,-333.6 2548,4 -4,4"/>
<!-- netbom.bom_readers.altium_bom_reader.AltiumBomReader -->
<g id="node1" class="node">
<title>netbom.bom_readers.altium_bom_reader.AltiumBomReader</title>
<polygon fill="none" stroke="black" points="0,-38.9 0,-137.9 223,-137.9 223,-38.9 0,-38.9"/>
<text text-anchor="start" x="46" y="-122.7" font-family="Times,serif" font-size="14.00">AltiumBomReader</text>
<polyline fill="none" stroke="black" points="0,-114.9 223,-114.9 "/>
<text text-anchor="start" x="8" y="-99.7" font-family="Times,serif" font-size="14.00">DATA_HEADERS_SUFIX : str</text>
<text text-anchor="start" x="8" y="-84.7" font-family="Times,serif" font-size="14.00">ROW_DATA : int</text>
<text text-anchor="start" x="8" y="-69.7" font-family="Times,serif" font-size="14.00">ROW_HEADERS : int</text>
<polyline fill="none" stroke="black" points="0,-61.9 223,-61.9 "/>
<text text-anchor="start" x="30.5" y="-46.7" font-family="Times,serif" font-size="14.00">from_excel(path): Bom</text>
</g>
<!-- netbom.bom.Bom -->
<g id="node2" class="node">
<title>netbom.bom.Bom</title>
<polygon fill="none" stroke="black" points="621.5,-236.7 621.5,-320.7 675.5,-320.7 675.5,-236.7 621.5,-236.7"/>
<text text-anchor="start" x="632" y="-305.5" font-family="Times,serif" font-size="14.00">Bom</text>
<polyline fill="none" stroke="black" points="621.5,-297.7 675.5,-297.7 "/>
<text text-anchor="start" x="631" y="-282.5" font-family="Times,serif" font-size="14.00">data</text>
<text text-anchor="start" x="631" y="-267.5" font-family="Times,serif" font-size="14.00">rows</text>
<polyline fill="none" stroke="black" points="621.5,-259.7 675.5,-259.7 "/>
<text text-anchor="start" x="646" y="-244.5" font-family="Times,serif" font-size="14.00"> </text>
</g>
<!-- netbom.bom.BomData -->
<g id="node3" class="node">
<title>netbom.bom.BomData</title>
<polygon fill="none" stroke="black" points="708,-53 708,-123.8 791,-123.8 791,-53 708,-53"/>
<text text-anchor="start" x="716" y="-108.6" font-family="Times,serif" font-size="14.00">BomData</text>
<polyline fill="none" stroke="black" points="708,-100.8 791,-100.8 "/>
<polyline fill="none" stroke="black" points="708,-76 791,-76 "/>
<text text-anchor="start" x="747" y="-60.8" font-family="Times,serif" font-size="14.00"> </text>
</g>
<!-- netbom.bom.BomData&#45;&gt;netbom.bom.Bom -->
<g id="edge3" class="edge">
<title>netbom.bom.BomData&#45;&gt;netbom.bom.Bom</title>
<path fill="none" stroke="black" d="M730.98,-123.94C715.68,-152.46 693.73,-193.38 676.32,-225.84"/>
<polygon fill="black" stroke="black" points="676.28,-225.91 676.97,-233.09 670.6,-236.49 669.92,-229.31 676.28,-225.91"/>
<text text-anchor="middle" x="713" y="-198.6" font-family="Times,serif" font-size="14.00" fill="green">_data</text>
</g>
<!-- netbom.bom.BomUtils -->
<g id="node6" class="node">
<title>netbom.bom.BomUtils</title>
<polygon fill="none" stroke="black" points="792,-228.3 792,-329.1 875,-329.1 875,-228.3 792,-228.3"/>
<text text-anchor="start" x="800" y="-313.9" font-family="Times,serif" font-size="14.00">BomUtils</text>
<polyline fill="none" stroke="black" points="792,-306.1 875,-306.1 "/>
<polyline fill="none" stroke="black" points="792,-281.3 875,-281.3 "/>
<text text-anchor="start" x="805" y="-266.1" font-family="Times,serif" font-size="14.00">items()</text>
<text text-anchor="start" x="805" y="-251.1" font-family="Times,serif" font-size="14.00">keys()</text>
<text text-anchor="start" x="805" y="-236.1" font-family="Times,serif" font-size="14.00">values()</text>
</g>
<!-- netbom.bom.BomData&#45;&gt;netbom.bom.BomUtils -->
<g id="edge1" class="edge">
<title>netbom.bom.BomData&#45;&gt;netbom.bom.BomUtils</title>
<path fill="none" stroke="black" d="M764.91,-123.94C776.71,-150.4 793.28,-187.53 807.17,-218.68"/>
<polygon fill="none" stroke="black" points="804.12,-220.42 811.39,-228.13 810.51,-217.57 804.12,-220.42"/>
</g>
<!-- netbom.bom.BomRow -->
<g id="node4" class="node">
<title>netbom.bom.BomRow</title>
<polygon fill="none" stroke="black" points="809.5,-53 809.5,-123.8 943.5,-123.8 943.5,-53 809.5,-53"/>
<text text-anchor="start" x="844.5" y="-108.6" font-family="Times,serif" font-size="14.00">BomRow</text>
<polyline fill="none" stroke="black" points="809.5,-100.8 943.5,-100.8 "/>
<polyline fill="none" stroke="black" points="809.5,-76 943.5,-76 "/>
<text text-anchor="start" x="817.5" y="-60.8" font-family="Times,serif" font-size="14.00">set_index(index)</text>
</g>
<!-- netbom.bom.BomRow&#45;&gt;netbom.bom.BomUtils -->
<g id="edge2" class="edge">
<title>netbom.bom.BomRow&#45;&gt;netbom.bom.BomUtils</title>
<path fill="none" stroke="black" d="M868.61,-123.94C862.6,-150.28 854.16,-187.21 847.07,-218.27"/>
<polygon fill="none" stroke="black" points="843.63,-217.6 844.82,-228.13 850.46,-219.16 843.63,-217.6"/>
</g>
<!-- netbom.bom.BomRows -->
<g id="node5" class="node">
<title>netbom.bom.BomRows</title>
<polygon fill="none" stroke="black" points="241.5,-23 241.5,-153.8 689.5,-153.8 689.5,-23 241.5,-23"/>
<text text-anchor="start" x="430" y="-138.6" font-family="Times,serif" font-size="14.00">BomRows</text>
<polyline fill="none" stroke="black" points="241.5,-130.8 689.5,-130.8 "/>
<polyline fill="none" stroke="black" points="241.5,-106 689.5,-106 "/>
<text text-anchor="start" x="249.5" y="-90.8" font-family="Times,serif" font-size="14.00">append(row)</text>
<text text-anchor="start" x="249.5" y="-75.8" font-family="Times,serif" font-size="14.00">append_by_designator(designator: str, data_dict: dict): None</text>
<text text-anchor="start" x="249.5" y="-60.8" font-family="Times,serif" font-size="14.00">delete(index)</text>
<text text-anchor="start" x="249.5" y="-45.8" font-family="Times,serif" font-size="14.00">fetch_row_by_designator(designator: str): BomRow</text>
<text text-anchor="start" x="249.5" y="-30.8" font-family="Times,serif" font-size="14.00">items()</text>
</g>
<!-- netbom.bom.BomRows&#45;&gt;netbom.bom.Bom -->
<g id="edge4" class="edge">
<title>netbom.bom.BomRows&#45;&gt;netbom.bom.Bom</title>
<path fill="none" stroke="black" d="M528.22,-153.94C556.42,-182.95 588.68,-216.14 612.68,-240.85"/>
<polygon fill="black" stroke="black" points="612.77,-240.93 619.82,-242.45 621.13,-249.54 614.08,-248.02 612.77,-240.93"/>
<text text-anchor="middle" x="600.5" y="-198.6" font-family="Times,serif" font-size="14.00" fill="green">_rows</text>
</g>
<!-- netbom.netlist.Netlist -->
<g id="node7" class="node">
<title>netbom.netlist.Netlist</title>
<polygon fill="none" stroke="black" points="961.5,-0.5 961.5,-176.3 1353.5,-176.3 1353.5,-0.5 961.5,-0.5"/>
<text text-anchor="start" x="1133" y="-161.1" font-family="Times,serif" font-size="14.00">Netlist</text>
<polyline fill="none" stroke="black" points="961.5,-153.3 1353.5,-153.3 "/>
<polyline fill="none" stroke="black" points="961.5,-128.5 1353.5,-128.5 "/>
<text text-anchor="start" x="969.5" y="-113.3" font-family="Times,serif" font-size="14.00">append(netline)</text>
<text text-anchor="start" x="969.5" y="-98.3" font-family="Times,serif" font-size="14.00">append_pin(net: str, designator: str, pin: str)</text>
<text text-anchor="start" x="969.5" y="-83.3" font-family="Times,serif" font-size="14.00">append_pins(net: str, designator: str, pins: list)</text>
<text text-anchor="start" x="969.5" y="-68.3" font-family="Times,serif" font-size="14.00">filter_designator(startswith: str): NetlistDesignators</text>
<text text-anchor="start" x="969.5" y="-53.3" font-family="Times,serif" font-size="14.00">nets(): list</text>
<text text-anchor="start" x="969.5" y="-38.3" font-family="Times,serif" font-size="14.00">remove_orphans(): None</text>
<text text-anchor="start" x="969.5" y="-23.3" font-family="Times,serif" font-size="14.00">to_dict(): dict</text>
<text text-anchor="start" x="969.5" y="-8.3" font-family="Times,serif" font-size="14.00">to_json(): str</text>
</g>
<!-- netbom.netlist.NetlistConnection -->
<g id="node8" class="node">
<title>netbom.netlist.NetlistConnection</title>
<polygon fill="none" stroke="black" points="1349.5,-236.7 1349.5,-320.7 1495.5,-320.7 1495.5,-236.7 1349.5,-236.7"/>
<text text-anchor="start" x="1357.5" y="-305.5" font-family="Times,serif" font-size="14.00">NetlistConnection</text>
<polyline fill="none" stroke="black" points="1349.5,-297.7 1495.5,-297.7 "/>
<text text-anchor="start" x="1384" y="-282.5" font-family="Times,serif" font-size="14.00">designator</text>
<text text-anchor="start" x="1384" y="-267.5" font-family="Times,serif" font-size="14.00">pins</text>
<polyline fill="none" stroke="black" points="1349.5,-259.7 1495.5,-259.7 "/>
<text text-anchor="start" x="1420" y="-244.5" font-family="Times,serif" font-size="14.00"> </text>
</g>
<!-- netbom.netlist.NetlistConnections -->
<g id="node9" class="node">
<title>netbom.netlist.NetlistConnections</title>
<polygon fill="none" stroke="black" points="1492,-38 1492,-138.8 1695,-138.8 1695,-38 1492,-38"/>
<text text-anchor="start" x="1525" y="-123.6" font-family="Times,serif" font-size="14.00">NetlistConnections</text>
<polyline fill="none" stroke="black" points="1492,-115.8 1695,-115.8 "/>
<polyline fill="none" stroke="black" points="1492,-91 1695,-91 "/>
<text text-anchor="start" x="1500" y="-75.8" font-family="Times,serif" font-size="14.00">append(connection): None</text>
<text text-anchor="start" x="1500" y="-60.8" font-family="Times,serif" font-size="14.00">designators()</text>
<text text-anchor="start" x="1500" y="-45.8" font-family="Times,serif" font-size="14.00">to_dict(): dict</text>
</g>
<!-- netbom.netlist.NetlistNetline -->
<g id="node12" class="node">
<title>netbom.netlist.NetlistNetline</title>
<polygon fill="none" stroke="black" points="1534.5,-236.7 1534.5,-320.7 1652.5,-320.7 1652.5,-236.7 1534.5,-236.7"/>
<text text-anchor="start" x="1542.5" y="-305.5" font-family="Times,serif" font-size="14.00">NetlistNetline</text>
<polyline fill="none" stroke="black" points="1534.5,-297.7 1652.5,-297.7 "/>
<text text-anchor="start" x="1551" y="-282.5" font-family="Times,serif" font-size="14.00">connections</text>
<text text-anchor="start" x="1551" y="-267.5" font-family="Times,serif" font-size="14.00">net</text>
<polyline fill="none" stroke="black" points="1534.5,-259.7 1652.5,-259.7 "/>
<text text-anchor="start" x="1591" y="-244.5" font-family="Times,serif" font-size="14.00"> </text>
</g>
<!-- netbom.netlist.NetlistConnections&#45;&gt;netbom.netlist.NetlistNetline -->
<g id="edge5" class="edge">
<title>netbom.netlist.NetlistConnections&#45;&gt;netbom.netlist.NetlistNetline</title>
<path fill="none" stroke="black" d="M1593.5,-138.87C1593.5,-165.12 1593.5,-197.39 1593.5,-224.22"/>
<polygon fill="none" stroke="black" points="1593.5,-224.5 1597.5,-230.5 1593.5,-236.5 1589.5,-230.5 1593.5,-224.5"/>
<text text-anchor="middle" x="1639.5" y="-198.6" font-family="Times,serif" font-size="14.00" fill="green">_connections</text>
</g>
<!-- netbom.netlist.NetlistDesignator -->
<g id="node10" class="node">
<title>netbom.netlist.NetlistDesignator</title>
<polygon fill="none" stroke="black" points="1713,-38.9 1713,-137.9 1928,-137.9 1928,-38.9 1713,-38.9"/>
<text text-anchor="start" x="1756.5" y="-122.7" font-family="Times,serif" font-size="14.00">NetlistDesignator</text>
<polyline fill="none" stroke="black" points="1713,-114.9 1928,-114.9 "/>
<text text-anchor="start" x="1782" y="-99.7" font-family="Times,serif" font-size="14.00">designator</text>
<text text-anchor="start" x="1782" y="-84.7" font-family="Times,serif" font-size="14.00">items</text>
<polyline fill="none" stroke="black" points="1713,-76.9 1928,-76.9 "/>
<text text-anchor="start" x="1721" y="-61.7" font-family="Times,serif" font-size="14.00">append(pin_net: dict): None</text>
<text text-anchor="start" x="1721" y="-46.7" font-family="Times,serif" font-size="14.00">to_dict(): dict</text>
</g>
<!-- netbom.netlist.NetlistDesignators -->
<g id="node11" class="node">
<title>netbom.netlist.NetlistDesignators</title>
<polygon fill="none" stroke="black" points="1946,-38 1946,-138.8 2211,-138.8 2211,-38 1946,-38"/>
<text text-anchor="start" x="2010.5" y="-123.6" font-family="Times,serif" font-size="14.00">NetlistDesignators</text>
<polyline fill="none" stroke="black" points="1946,-115.8 2211,-115.8 "/>
<polyline fill="none" stroke="black" points="1946,-91 2211,-91 "/>
<text text-anchor="start" x="1954" y="-75.8" font-family="Times,serif" font-size="14.00">append(designator, pin, net): None</text>
<text text-anchor="start" x="1954" y="-60.8" font-family="Times,serif" font-size="14.00">to_dict(): dict</text>
<text text-anchor="start" x="1954" y="-45.8" font-family="Times,serif" font-size="14.00">to_json(): str</text>
</g>
<!-- netbom.netlist.NetlistPins -->
<g id="node13" class="node">
<title>netbom.netlist.NetlistPins</title>
<polygon fill="none" stroke="black" points="1371.5,-53 1371.5,-123.8 1473.5,-123.8 1473.5,-53 1371.5,-53"/>
<text text-anchor="start" x="1382.5" y="-108.6" font-family="Times,serif" font-size="14.00">NetlistPins</text>
<polyline fill="none" stroke="black" points="1371.5,-100.8 1473.5,-100.8 "/>
<polyline fill="none" stroke="black" points="1371.5,-76 1473.5,-76 "/>
<text text-anchor="start" x="1379.5" y="-60.8" font-family="Times,serif" font-size="14.00">to_list(): list</text>
</g>
<!-- netbom.netlist.NetlistPins&#45;&gt;netbom.netlist.NetlistConnection -->
<g id="edge6" class="edge">
<title>netbom.netlist.NetlistPins&#45;&gt;netbom.netlist.NetlistConnection</title>
<path fill="none" stroke="black" d="M1422.5,-123.94C1422.5,-151.96 1422.5,-191.96 1422.5,-224.14"/>
<polygon fill="none" stroke="black" points="1422.5,-224.49 1426.5,-230.49 1422.5,-236.49 1418.5,-230.49 1422.5,-224.49"/>
<text text-anchor="middle" x="1441" y="-198.6" font-family="Times,serif" font-size="14.00" fill="green">_pins</text>
</g>
<!-- netbom.netlist_readers.rinf_netlist_reader.RinfNetlistReader -->
<g id="node14" class="node">
<title>netbom.netlist_readers.rinf_netlist_reader.RinfNetlistReader</title>
<polygon fill="none" stroke="black" points="2229,-1.4 2229,-175.4 2544,-175.4 2544,-1.4 2229,-1.4"/>
<text text-anchor="start" x="2321.5" y="-160.2" font-family="Times,serif" font-size="14.00">RinfNetlistReader</text>
<polyline fill="none" stroke="black" points="2229,-152.4 2544,-152.4 "/>
<text text-anchor="start" x="2294.5" y="-137.2" font-family="Times,serif" font-size="14.00">FILE_END : str</text>
<text text-anchor="start" x="2294.5" y="-122.2" font-family="Times,serif" font-size="14.00">FILE_HEADER : str</text>
<text text-anchor="start" x="2294.5" y="-107.2" font-family="Times,serif" font-size="14.00">SEPARATOR : str</text>
<text text-anchor="start" x="2294.5" y="-92.2" font-family="Times,serif" font-size="14.00">STRING_DELIMITER : str</text>
<polyline fill="none" stroke="black" points="2229,-84.4 2544,-84.4 "/>
<text text-anchor="start" x="2237" y="-69.2" font-family="Times,serif" font-size="14.00">bom_and_netlist_from_file(path: str): Bom</text>
<text text-anchor="start" x="2237" y="-54.2" font-family="Times,serif" font-size="14.00">bom_from_file(path: str): Bom</text>
<text text-anchor="start" x="2237" y="-39.2" font-family="Times,serif" font-size="14.00">get_file_flavor(path): str</text>
<text text-anchor="start" x="2237" y="-24.2" font-family="Times,serif" font-size="14.00">is_file_valid(path: str): bool</text>
<text text-anchor="start" x="2237" y="-9.2" font-family="Times,serif" font-size="14.00">netlist_from_file(path: str)</text>
</g>
</g>
</svg>
