<?xml version="1.0" encoding="UTF-8" standalone="no"?>
<!DOCTYPE svg PUBLIC "-//W3C//DTD SVG 1.1//EN"
 "http://www.w3.org/Graphics/SVG/1.1/DTD/svg11.dtd">
<!-- Generated by graphviz version 2.43.0 (0)
 -->
<!-- Title: packages Pages: 1 -->
<svg width="672pt" height="188pt"
 viewBox="0.00 0.00 672.00 188.00" xmlns="http://www.w3.org/2000/svg" xmlns:xlink="http://www.w3.org/1999/xlink">
<g id="graph0" class="graph" transform="scale(1 1) rotate(0) translate(4 184)">
<title>packages</title>
<polygon fill="white" stroke="transparent" points="-4,4 -4,-184 668,-184 668,4 -4,4"/>
<!-- netbom -->
<g id="node1" class="node">
<title>netbom</title>
<polygon fill="none" stroke="black" points="71,-36 0,-36 0,0 71,0 71,-36"/>
<text text-anchor="middle" x="35.5" y="-14.3" font-family="Times,serif" font-size="14.00">netbom</text>
</g>
<!-- netbom.bom -->
<g id="node2" class="node">
<title>netbom.bom</title>
<polygon fill="none" stroke="black" points="325.5,-180 219.5,-180 219.5,-144 325.5,-144 325.5,-180"/>
<text text-anchor="middle" x="272.5" y="-158.3" font-family="Times,serif" font-size="14.00">netbom.bom</text>
</g>
<!-- netbom.bom_readers -->
<g id="node3" class="node">
<title>netbom.bom_readers</title>
<polygon fill="none" stroke="black" points="256,-36 89,-36 89,0 256,0 256,-36"/>
<text text-anchor="middle" x="172.5" y="-14.3" font-family="Times,serif" font-size="14.00">netbom.bom_readers</text>
</g>
<!-- netbom.bom_readers.altium_bom_reader -->
<g id="node4" class="node">
<title>netbom.bom_readers.altium_bom_reader</title>
<polygon fill="none" stroke="black" points="327,-108 18,-108 18,-72 327,-72 327,-108"/>
<text text-anchor="middle" x="172.5" y="-86.3" font-family="Times,serif" font-size="14.00">netbom.bom_readers.altium_bom_reader</text>
</g>
<!-- netbom.bom_readers&#45;&gt;netbom.bom_readers.altium_bom_reader -->
<g id="edge1" class="edge">
<title>netbom.bom_readers&#45;&gt;netbom.bom_readers.altium_bom_reader</title>
<path fill="none" stroke="black" d="M172.5,-36.3C172.5,-44.02 172.5,-53.29 172.5,-61.89"/>
<polygon fill="black" stroke="black" points="172.5,-71.9 168,-61.9 172.5,-66.9 172.5,-61.9 172.5,-61.9 172.5,-61.9 172.5,-66.9 177,-61.9 172.5,-71.9 172.5,-71.9"/>
</g>
<!-- netbom.bom_readers.altium_bom_reader&#45;&gt;netbom.bom -->
<g id="edge2" class="edge">
<title>netbom.bom_readers.altium_bom_reader&#45;&gt;netbom.bom</title>
<path fill="none" stroke="black" d="M196.96,-108.12C209.8,-117.11 225.7,-128.24 239.59,-137.97"/>
<polygon fill="black" stroke="black" points="247.94,-143.81 237.17,-141.76 243.85,-140.94 239.75,-138.08 239.75,-138.08 239.75,-138.08 243.85,-140.94 242.33,-134.39 247.94,-143.81 247.94,-143.81"/>
</g>
<!-- netbom.netlist -->
<g id="node5" class="node">
<title>netbom.netlist</title>
<polygon fill="none" stroke="black" points="565,-180 444,-180 444,-144 565,-144 565,-180"/>
<text text-anchor="middle" x="504.5" y="-158.3" font-family="Times,serif" font-size="14.00">netbom.netlist</text>
</g>
<!-- netbom.netlist_readers -->
<g id="node6" class="node">
<title>netbom.netlist_readers</title>
<polygon fill="none" stroke="black" points="595.5,-36 413.5,-36 413.5,0 595.5,0 595.5,-36"/>
<text text-anchor="middle" x="504.5" y="-14.3" font-family="Times,serif" font-size="14.00">netbom.netlist_readers</text>
</g>
<!-- netbom.netlist_readers.rinf_netlist_reader -->
<g id="node7" class="node">
<title>netbom.netlist_readers.rinf_netlist_reader</title>
<polygon fill="none" stroke="black" points="664,-108 345,-108 345,-72 664,-72 664,-108"/>
<text text-anchor="middle" x="504.5" y="-86.3" font-family="Times,serif" font-size="14.00">netbom.netlist_readers.rinf_netlist_reader</text>
</g>
<!-- netbom.netlist_readers&#45;&gt;netbom.netlist_readers.rinf_netlist_reader -->
<g id="edge3" class="edge">
<title>netbom.netlist_readers&#45;&gt;netbom.netlist_readers.rinf_netlist_reader</title>
<path fill="none" stroke="black" d="M504.5,-36.3C504.5,-44.02 504.5,-53.29 504.5,-61.89"/>
<polygon fill="black" stroke="black" points="504.5,-71.9 500,-61.9 504.5,-66.9 504.5,-61.9 504.5,-61.9 504.5,-61.9 504.5,-66.9 509,-61.9 504.5,-71.9 504.5,-71.9"/>
</g>
<!-- netbom.netlist_readers.rinf_netlist_reader&#45;&gt;netbom.bom -->
<g id="edge4" class="edge">
<title>netbom.netlist_readers.rinf_netlist_reader&#45;&gt;netbom.bom</title>
<path fill="none" stroke="black" d="M448.04,-108.03C413.96,-118.32 370.47,-131.44 335.3,-142.05"/>
<polygon fill="black" stroke="black" points="325.62,-144.97 333.89,-137.78 330.41,-143.53 335.19,-142.08 335.19,-142.08 335.19,-142.08 330.41,-143.53 336.49,-146.39 325.62,-144.97 325.62,-144.97"/>
</g>
<!-- netbom.netlist_readers.rinf_netlist_reader&#45;&gt;netbom.netlist -->
<g id="edge5" class="edge">
<title>netbom.netlist_readers.rinf_netlist_reader&#45;&gt;netbom.netlist</title>
<path fill="none" stroke="black" d="M504.5,-108.3C504.5,-116.02 504.5,-125.29 504.5,-133.89"/>
<polygon fill="black" stroke="black" points="504.5,-143.9 500,-133.9 504.5,-138.9 504.5,-133.9 504.5,-133.9 504.5,-133.9 504.5,-138.9 509,-133.9 504.5,-143.9 504.5,-143.9"/>
</g>
</g>
</svg>
