<?xml version="1.0" encoding="UTF-8" standalone="no"?>
<!DOCTYPE svg PUBLIC "-//W3C//DTD SVG 1.1//EN"
 "http://www.w3.org/Graphics/SVG/1.1/DTD/svg11.dtd">
<!-- Generated by graphviz version 2.43.0 (0)
 -->
<!-- Title: packages Pages: 1 -->
<svg width="928pt" height="116pt"
 viewBox="0.00 0.00 928.00 116.00" xmlns="http://www.w3.org/2000/svg" xmlns:xlink="http://www.w3.org/1999/xlink">
<g id="graph0" class="graph" transform="scale(1 1) rotate(0) translate(4 112)">
<title>packages</title>
<polygon fill="white" stroke="transparent" points="-4,4 -4,-112 924,-112 924,4 -4,4"/>
<!-- src.netbom -->
<g id="node1" class="node">
<title>src.netbom</title>
<polygon fill="none" stroke="black" points="97,-36 0,-36 0,0 97,0 97,-36"/>
<text text-anchor="middle" x="48.5" y="-14.3" font-family="Times,serif" font-size="14.00">src.netbom</text>
</g>
<!-- src.netbom.bom -->
<g id="node2" class="node">
<title>src.netbom.bom</title>
<polygon fill="none" stroke="black" points="247.5,-36 115.5,-36 115.5,0 247.5,0 247.5,-36"/>
<text text-anchor="middle" x="181.5" y="-14.3" font-family="Times,serif" font-size="14.00">src.netbom.bom</text>
</g>
<!-- src.netbom.bom_readers -->
<g id="node3" class="node">
<title>src.netbom.bom_readers</title>
<polygon fill="none" stroke="black" points="459.5,-36 265.5,-36 265.5,0 459.5,0 459.5,-36"/>
<text text-anchor="middle" x="362.5" y="-14.3" font-family="Times,serif" font-size="14.00">src.netbom.bom_readers</text>
</g>
<!-- src.netbom.bom_readers.altium_bom_reader -->
<g id="node4" class="node">
<title>src.netbom.bom_readers.altium_bom_reader</title>
<polygon fill="none" stroke="black" points="530,-108 195,-108 195,-72 530,-72 530,-108"/>
<text text-anchor="middle" x="362.5" y="-86.3" font-family="Times,serif" font-size="14.00">src.netbom.bom_readers.altium_bom_reader</text>
</g>
<!-- src.netbom.bom_readers&#45;&gt;src.netbom.bom_readers.altium_bom_reader -->
<g id="edge1" class="edge">
<title>src.netbom.bom_readers&#45;&gt;src.netbom.bom_readers.altium_bom_reader</title>
<path fill="none" stroke="black" d="M362.5,-36.3C362.5,-44.02 362.5,-53.29 362.5,-61.89"/>
<polygon fill="black" stroke="black" points="362.5,-71.9 358,-61.9 362.5,-66.9 362.5,-61.9 362.5,-61.9 362.5,-61.9 362.5,-66.9 367,-61.9 362.5,-71.9 362.5,-71.9"/>
</g>
<!-- src.netbom.netlist -->
<g id="node5" class="node">
<title>src.netbom.netlist</title>
<polygon fill="none" stroke="black" points="625,-36 478,-36 478,0 625,0 625,-36"/>
<text text-anchor="middle" x="551.5" y="-14.3" font-family="Times,serif" font-size="14.00">src.netbom.netlist</text>
</g>
<!-- src.netbom.netlist_readers -->
<g id="node6" class="node">
<title>src.netbom.netlist_readers</title>
<polygon fill="none" stroke="black" points="852,-36 643,-36 643,0 852,0 852,-36"/>
<text text-anchor="middle" x="747.5" y="-14.3" font-family="Times,serif" font-size="14.00">src.netbom.netlist_readers</text>
</g>
<!-- src.netbom.netlist_readers.rinf_netlist_reader -->
<g id="node7" class="node">
<title>src.netbom.netlist_readers.rinf_netlist_reader</title>
<polygon fill="none" stroke="black" points="920,-108 575,-108 575,-72 920,-72 920,-108"/>
<text text-anchor="middle" x="747.5" y="-86.3" font-family="Times,serif" font-size="14.00">src.netbom.netlist_readers.rinf_netlist_reader</text>
</g>
<!-- src.netbom.netlist_readers&#45;&gt;src.netbom.netlist_readers.rinf_netlist_reader -->
<g id="edge2" class="edge">
<title>src.netbom.netlist_readers&#45;&gt;src.netbom.netlist_readers.rinf_netlist_reader</title>
<path fill="none" stroke="black" d="M747.5,-36.3C747.5,-44.02 747.5,-53.29 747.5,-61.89"/>
<polygon fill="black" stroke="black" points="747.5,-71.9 743,-61.9 747.5,-66.9 747.5,-61.9 747.5,-61.9 747.5,-61.9 747.5,-66.9 752,-61.9 747.5,-71.9 747.5,-71.9"/>
</g>
</g>
</svg>
